# Blender 3.6.0
# www.blender.org
mtllib Sword.mtl
o Cube
v 0.000000 -1.000000 0.565685
v 0.000000 7.442820 0.565685
v -1.414214 9.942820 0.000000
v 0.000000 12.855835 0.000000
v 0.000000 6.659060 0.565685
v 1.414214 3.973690 0.000000
v 0.000000 3.973690 0.565685
v 1.414214 7.359059 0.000000
v 0.949975 7.159060 0.185695
v 1.414214 6.959060 0.000000
v 1.414214 3.410456 0.000000
v 0.000000 3.410455 0.565685
v -1.135670 3.973690 0.111417
v -1.414214 4.107080 0.000000
v -1.250176 3.410456 0.065615
v -1.414214 3.536980 0.000000
v -1.414214 3.326041 0.000000
v 0.000000 -1.500000 0.848528
v 2.121320 -1.500000 0.000000
v 0.000000 -1.500000 1.697056
v -4.242640 -1.500000 0.000000
v 4.242640 -1.500000 0.000000
v 0.000000 -3.500000 0.750000
v -0.750000 -3.500000 0.000000
v 0.750000 -3.500000 0.000000
v -4.242640 -2.500000 0.000000
v -0.696357 -2.500000 1.697056
v 0.000000 -3.250000 1.697056
v 0.696357 -2.500000 1.697056
v 0.000000 -1.750000 1.697056
v 0.000000 -1.000000 -0.565685
v 0.000000 8.442820 -0.565685
v -1.414214 -1.000000 0.000000
v 1.414214 -1.000000 0.000000
v 1.414214 9.942820 0.000000
v 0.000000 7.159060 -0.565685
v -1.414214 7.159060 0.000000
v 0.000000 3.973690 -0.565685
v 0.949975 7.159060 -0.185695
v 0.000000 3.410455 -0.565685
v -1.414214 3.877213 0.000000
v -1.135670 3.973690 -0.111417
v -1.250176 3.410456 -0.065615
v 0.000000 -1.500000 -0.848528
v -2.121320 -1.500000 0.000000
v 0.000000 -1.500000 -1.697056
v 0.000000 -3.500000 -0.750000
v 4.242640 -2.500000 0.000000
v -0.696357 -2.500000 -1.697056
v 0.000000 -3.250000 -1.697056
v 0.696357 -2.500000 -1.697056
v 0.000000 -1.750000 -1.697056
v -4.242640 -3.500000 0.000000
v 0.000000 -3.500000 1.697056
v 4.242640 -3.500000 0.000000
v 0.000000 -3.500000 -1.697056
v -0.750000 -7.500000 0.000000
v 0.000000 -7.500000 0.750000
v 0.750000 -7.500000 0.000000
v 0.000000 -7.500000 -0.750000
v 0.000000 -8.750000 -0.000000
v 0.904509 -8.059024 0.657157
v -0.345485 -8.059025 1.063312
v -1.118033 -8.059019 0.000000
v -0.345485 -8.059025 -1.063312
v 0.904509 -8.059024 -0.657157
v 0.345485 -6.940975 1.063312
v -0.904509 -6.940975 0.657157
v -0.904509 -6.940975 -0.657157
v 0.345485 -6.940975 -1.063312
v 1.118033 -6.940980 0.000000
v 0.000000 -6.250000 -0.000000
v -0.203069 -8.563318 0.624994
v 0.531653 -8.563318 0.386264
v 0.328586 -8.157172 1.011265
v 1.063310 -8.157169 0.000000
v 0.531653 -8.563318 -0.386264
v -0.657162 -8.563314 0.000000
v -0.860237 -8.157169 0.624996
v -0.203069 -8.563318 -0.624994
v -0.860237 -8.157169 -0.624996
v 0.328586 -8.157172 -1.011265
v 1.188823 -7.500000 0.386266
v 1.188823 -7.500000 -0.386266
v 0.000000 -7.500000 1.250000
v 0.734732 -7.500000 1.011271
v -1.188823 -7.500000 0.386266
v -0.734732 -7.500000 1.011271
v -0.734732 -7.500000 -1.011271
v -1.188823 -7.500000 -0.386266
v 0.734732 -7.500000 -1.011271
v 0.000000 -7.500000 -1.250000
v 0.860237 -6.842829 0.624996
v -0.328586 -6.842827 1.011265
v -1.063310 -6.842830 0.000000
v -0.328586 -6.842827 -1.011265
v 0.860237 -6.842829 -0.624996
v 0.203069 -6.436681 0.624994
v 0.657162 -6.436685 0.000000
v -0.531653 -6.436682 0.386264
v -0.531653 -6.436682 -0.386264
v 0.203069 -6.436681 -0.624994
vn -0.3714 -0.0000 0.9285
vn 0.3714 -0.0000 0.9285
vn -0.2093 0.1016 0.9725
vn 0.2094 0.1016 0.9725
vn -0.0000 1.0000 -0.0000
vn -0.3288 0.4650 0.8220
vn 0.3288 0.4650 0.8220
vn 0.3885 0.1353 0.9115
vn -0.3885 -0.1353 0.9115
vn 0.3885 -0.1353 0.9115
vn -0.0000 -0.0000 1.0000
vn -0.3885 0.1353 0.9115
vn -0.3714 -0.0000 -0.9285
vn 0.3714 -0.0000 -0.9285
vn -0.2534 0.1230 -0.9595
vn 0.2534 0.1230 -0.9595
vn -0.3288 0.4650 -0.8220
vn 0.3288 0.4650 -0.8220
vn 0.3885 0.1353 -0.9115
vn -0.3885 -0.1353 -0.9115
vn 0.3885 -0.1353 -0.9115
vn -0.0000 -0.0000 -1.0000
vn -0.3885 0.1353 -0.9115
vn -0.7071 -0.0000 -0.7071
vn -0.0000 -1.0000 -0.0000
vn -0.7071 -0.0000 0.7071
vn 0.7071 -0.0000 -0.7071
vn 0.7071 -0.0000 0.7071
vn 0.1024 -0.9435 0.3151
vn 0.7002 -0.6617 0.2680
vn -0.2680 -0.9435 0.1947
vn -0.2680 -0.9435 -0.1947
vn 0.1024 -0.9435 -0.3151
vn 0.9050 -0.3304 0.2680
vn 0.0247 -0.3304 0.9435
vn -0.8897 -0.3304 0.3151
vn -0.5746 -0.3304 -0.7488
vn 0.5346 -0.3304 -0.7779
vn 0.8026 -0.1256 0.5831
vn -0.3066 -0.1256 0.9435
vn -0.9921 -0.1256 -0.0000
vn -0.3066 -0.1256 -0.9435
vn 0.8026 -0.1256 -0.5831
vn 0.4089 0.6617 0.6284
vn -0.4713 0.6617 0.5831
vn -0.7002 0.6617 -0.2680
vn 0.0385 0.6617 -0.7488
vn 0.7240 0.6617 -0.1947
vn 0.2680 0.9435 -0.1947
vn 0.4911 0.7947 -0.3568
vn 0.4089 0.6617 -0.6284
vn -0.1024 0.9435 -0.3151
vn -0.1876 0.7947 -0.5773
vn -0.4713 0.6617 -0.5831
vn -0.3313 0.9435 -0.0000
vn -0.6071 0.7947 -0.0000
vn -0.7002 0.6617 0.2680
vn -0.1024 0.9435 0.3151
vn -0.1876 0.7947 0.5773
vn 0.0385 0.6617 0.7488
vn 0.2680 0.9435 0.1947
vn 0.4911 0.7947 0.3568
vn 0.7240 0.6617 0.1947
vn 0.8897 0.3304 -0.3151
vn 0.7947 0.1876 -0.5773
vn 0.5746 0.3304 -0.7488
vn -0.0247 0.3304 -0.9435
vn -0.3035 0.1876 -0.9342
vn -0.5346 0.3304 -0.7779
vn -0.9050 0.3304 -0.2680
vn -0.9822 0.1876 -0.0000
vn -0.9050 0.3304 0.2680
vn -0.5346 0.3304 0.7779
vn -0.3035 0.1876 0.9342
vn -0.0247 0.3304 0.9435
vn 0.5746 0.3304 0.7488
vn 0.7947 0.1876 0.5773
vn 0.8897 0.3304 0.3151
vn 0.3066 0.1256 -0.9435
vn 0.3035 -0.1876 -0.9342
vn 0.0247 -0.3304 -0.9435
vn -0.8026 0.1256 -0.5831
vn -0.7947 -0.1876 -0.5773
vn -0.8897 -0.3304 -0.3151
vn -0.8026 0.1256 0.5831
vn -0.7947 -0.1876 0.5773
vn -0.5746 -0.3304 0.7488
vn 0.3066 0.1256 0.9435
vn 0.3035 -0.1876 0.9342
vn 0.5346 -0.3304 0.7779
vn 0.9921 0.1256 -0.0000
vn 0.9822 -0.1876 -0.0000
vn 0.9050 -0.3304 -0.2680
vn 0.4713 -0.6617 -0.5831
vn 0.1876 -0.7947 -0.5773
vn -0.0385 -0.6617 -0.7488
vn -0.4089 -0.6617 -0.6284
vn -0.4911 -0.7947 -0.3568
vn -0.7240 -0.6617 -0.1947
vn -0.7240 -0.6617 0.1947
vn -0.4911 -0.7947 0.3568
vn -0.4089 -0.6617 0.6284
vn 0.7002 -0.6617 -0.2680
vn 0.6071 -0.7947 -0.0000
vn 0.3313 -0.9435 -0.0000
vn -0.0385 -0.6617 0.7488
vn 0.1876 -0.7947 0.5773
vn 0.4713 -0.6617 0.5831
vn -0.3273 0.9449 -0.0000
vn -0.4319 -0.9019 -0.0000
vn -0.4576 0.8892 -0.0000
vn -0.6107 -0.7918 -0.0000
vn 0.3957 0.9184 -0.0000
vn 0.3957 -0.9184 -0.0000
vt 0.500000 0.000000
vt 0.625000 0.000000
vt 0.625000 0.250000
vt 0.500000 0.250000
vt 0.437500 0.750000
vt 0.491840 0.750000
vt 0.500000 0.832067
vt 0.500000 1.000000
vt 0.437500 1.000000
vt 0.625000 1.000000
vt 0.625000 0.750000
vt 0.406250 0.750000
vt 0.406250 1.000000
vt 0.527367 0.750000
vt 0.375000 0.750000
vt 0.375000 1.000000
vt 0.406250 0.000000
vt 0.437500 0.000000
vt 0.437500 0.200760
vt 0.420855 0.250000
vt 0.412253 0.250000
vt 0.406250 0.221002
vt 0.444482 0.250000
vt 0.375000 0.000000
vt 0.406250 0.221002
vt 0.404998 0.250000
vt 0.375000 0.250000
vt 0.375000 0.958967
vt 0.375000 0.041033
vt 0.375000 0.041033
vt 0.375000 0.689681
vt 0.375000 0.877144
vt 0.375000 0.872357
vt 0.181819 0.000000
vt 0.227273 0.078731
vt 0.136365 0.078731
vt 0.272728 0.157461
vt 0.318182 0.078731
vt 0.363637 0.157461
vt 0.909091 0.000000
vt 0.954545 0.078731
vt 0.863636 0.078731
vt 0.727273 0.000000
vt 0.772727 0.078731
vt 0.681818 0.078731
vt 0.545455 0.000000
vt 0.590909 0.078731
vt 0.500000 0.078731
vt 0.318182 0.236191
vt 0.090910 0.157461
vt 0.181819 0.157461
vt 0.136365 0.236191
vt 0.818182 0.157461
vt 0.909091 0.157461
vt 0.863636 0.236191
vt 0.636364 0.157461
vt 0.727273 0.157461
vt 0.681818 0.236191
vt 0.454546 0.157461
vt 0.545455 0.157461
vt 0.500000 0.236191
vt 0.227273 0.236191
vt 0.045455 0.236191
vt 0.772727 0.236191
vt 0.590909 0.236191
vt 0.409092 0.236191
vt 0.181819 0.314921
vt 0.272728 0.314921
vt 0.227273 0.393651
vt 0.000000 0.314921
vt 0.090910 0.314921
vt 0.045455 0.393651
vt 0.727273 0.314921
vt 0.818182 0.314921
vt 0.772727 0.393651
vt 0.545455 0.314921
vt 0.636364 0.314921
vt 0.590909 0.393651
vt 0.363637 0.314921
vt 0.454546 0.314921
vt 0.409092 0.393651
vt 0.500000 0.393651
vt 0.454546 0.472382
vt 0.681818 0.393651
vt 0.636364 0.472382
vt 0.863636 0.393651
vt 0.818182 0.472382
vt 0.909091 0.314921
vt 0.136365 0.393651
vt 0.090910 0.472382
vt 0.318182 0.393651
vt 0.272728 0.472382
vt 0.954545 0.236191
vt 1.000000 0.157461
vt 0.409092 0.078731
vt 0.363637 0.000000
s 0
usemtl Metal
f 5/1/1 2/2/1 3/3/1 37/4/1
f 6/5/2 10/6/2 9/7/2 5/8/2 7/9/2
f 3/3/3 2/2/3 4/3/3
f 2/10/4 35/11/4 4/10/4
f 11/12/2 6/5/2 7/9/2 12/13/2
f 9/7/2 8/14/2 35/11/2 2/10/2 5/8/2
f 34/15/2 11/12/2 12/13/2 1/16/2
f 12/17/1 7/18/1 13/19/1 41/20/1 16/21/1 15/22/1
f 7/18/1 5/1/1 37/4/1 14/23/1 13/19/1
f 1/24/1 12/17/1 15/25/1 17/26/1 33/27/1
f 1/24/6 33/27/6 45/27/6 18/24/6
f 34/15/7 1/16/7 18/16/7 19/15/7
f 36/1/13 37/4/13 3/3/13 32/2/13
f 6/5/14 38/9/14 36/8/14 39/7/14 10/6/14
f 3/3/15 4/3/15 32/2/15
f 32/10/16 4/10/16 35/11/16
f 11/12/14 40/13/14 38/9/14 6/5/14
f 39/7/14 36/8/14 32/10/14 35/11/14 8/14/14
f 34/15/14 31/16/14 40/13/14 11/12/14
f 40/17/13 43/22/13 16/21/13 41/20/13 42/19/13 38/18/13
f 38/18/13 42/19/13 14/23/13 37/4/13 36/1/13
f 31/24/13 33/27/13 17/26/13 43/25/13 40/17/13
f 31/24/17 44/24/17 45/27/17 33/27/17
f 34/15/18 19/15/18 44/16/18 31/16/18
f 42/19/109 41/20/109 13/19/109
f 13/19/110 14/23/110 42/19/110
f 15/25/111 43/25/111 17/26/111
f 16/21/112 43/22/112 15/25/112
f 10/6/113 39/7/113 9/7/113
f 9/7/114 39/7/114 8/14/114
usemtl Handle
f 24/31/24 47/32/24 60/32/24 57/31/24
f 58/32/25 57/31/25 60/32/25 59/33/25
f 23/32/26 24/31/26 57/31/26 58/32/26
f 47/32/27 25/33/27 59/33/27 60/32/27
f 25/33/28 23/32/28 58/32/28 59/33/28
f 61/34/29 74/35/29 73/36/29
f 62/37/30 74/38/30 76/39/30
f 61/40/31 73/41/31 78/42/31
f 61/43/32 78/44/32 80/45/32
f 61/46/33 80/47/33 77/48/33
f 62/37/34 76/39/34 83/49/34
f 63/50/35 75/51/35 85/52/35
f 64/53/36 79/54/36 87/55/36
f 65/56/37 81/57/37 89/58/37
f 66/59/38 82/60/38 91/61/38
f 62/37/39 83/49/39 86/62/39
f 63/50/40 85/52/40 88/63/40
f 64/53/41 87/55/41 90/64/41
f 65/56/42 89/58/42 92/65/42
f 66/59/43 91/61/43 84/66/43
f 67/67/44 93/68/44 98/69/44
f 68/70/45 94/71/45 100/72/45
f 69/73/46 95/74/46 101/75/46
f 70/76/47 96/77/47 102/78/47
f 71/79/48 97/80/48 99/81/48
f 99/81/49 102/82/49 72/83/49
f 99/81/50 97/80/50 102/82/50
f 97/80/51 70/76/51 102/82/51
f 102/78/52 101/84/52 72/85/52
f 102/78/53 96/77/53 101/84/53
f 96/77/54 69/73/54 101/84/54
f 101/75/55 100/86/55 72/87/55
f 101/75/56 95/74/56 100/86/56
f 95/74/57 68/88/57 100/86/57
f 100/72/58 98/89/58 72/90/58
f 100/72/59 94/71/59 98/89/59
f 94/71/60 67/67/60 98/89/60
f 98/69/61 99/91/61 72/92/61
f 98/69/62 93/68/62 99/91/62
f 93/68/63 71/79/63 99/91/63
f 84/66/64 97/80/64 71/79/64
f 84/66/65 91/61/65 97/80/65
f 91/61/66 70/76/66 97/80/66
f 92/65/67 96/77/67 70/76/67
f 92/65/68 89/58/68 96/77/68
f 89/58/69 69/73/69 96/77/69
f 90/64/70 95/74/70 69/73/70
f 90/64/71 87/55/71 95/74/71
f 87/55/72 68/88/72 95/74/72
f 88/63/73 94/71/73 68/70/73
f 88/63/74 85/52/74 94/71/74
f 85/52/75 67/67/75 94/71/75
f 86/62/76 93/68/76 67/67/76
f 86/62/77 83/49/77 93/68/77
f 83/49/78 71/79/78 93/68/78
f 91/61/79 92/65/79 70/76/79
f 91/61/80 82/60/80 92/65/80
f 82/60/81 65/56/81 92/65/81
f 89/58/82 90/64/82 69/73/82
f 89/58/83 81/57/83 90/64/83
f 81/57/84 64/53/84 90/64/84
f 87/55/85 88/93/85 68/88/85
f 87/55/86 79/54/86 88/93/86
f 79/54/87 63/94/87 88/93/87
f 85/52/88 86/62/88 67/67/88
f 85/52/89 75/51/89 86/62/89
f 75/51/90 62/37/90 86/62/90
f 83/49/91 84/66/91 71/79/91
f 83/49/92 76/39/92 84/66/92
f 76/39/93 66/59/93 84/66/93
f 77/48/94 82/60/94 66/59/94
f 77/48/95 80/47/95 82/60/95
f 80/47/96 65/56/96 82/60/96
f 80/45/97 81/57/97 65/56/97
f 80/45/98 78/44/98 81/57/98
f 78/44/99 64/53/99 81/57/99
f 78/42/100 79/54/100 64/53/100
f 78/42/101 73/41/101 79/54/101
f 73/41/102 63/94/102 79/54/102
f 76/39/103 77/95/103 66/59/103
f 76/39/104 74/38/104 77/95/104
f 74/38/105 61/96/105 77/95/105
f 73/36/106 75/51/106 63/50/106
f 73/36/107 74/35/107 75/51/107
f 74/35/108 62/37/108 75/51/108
usemtl Thing
f 18/24/5 45/27/5 21/27/5 20/24/5
f 19/15/5 18/16/5 20/16/5 22/15/5
f 22/15/8 20/16/8 30/16/8 29/28/8 48/15/8
f 28/24/9 27/29/9 26/27/9 53/27/9 54/24/9
f 48/15/10 29/28/10 28/16/10 54/16/10 55/15/10
f 27/30/11 28/24/11 29/28/11 30/16/11
f 20/24/12 21/27/12 26/27/12 27/30/12 30/24/12
f 44/24/5 46/24/5 21/27/5 45/27/5
f 19/15/5 22/15/5 46/16/5 44/16/5
f 22/15/19 48/15/19 51/28/19 52/16/19 46/16/19
f 50/24/20 56/24/20 53/27/20 26/27/20 49/29/20
f 48/15/21 55/15/21 56/16/21 50/16/21 51/28/21
f 49/30/22 52/16/22 51/28/22 50/24/22
f 46/24/23 52/24/23 49/30/23 26/27/23 21/27/23
f 24/31/25 23/32/25 54/16/25 53/27/25
f 23/32/25 25/33/25 55/15/25 54/16/25
f 47/32/25 24/31/25 53/27/25 56/16/25
f 25/33/25 47/32/25 56/16/25 55/15/25
